<svg width="70" height="70" viewBox="0 0 70 70" fill="none" xmlns="http://www.w3.org/2000/svg">
<path d="M12.3047 41.8359C13.0593 41.8359 13.6719 41.2234 13.6719 40.4688C13.6719 39.7141 13.0593 39.1016 12.3047 39.1016C11.5501 39.1016 10.9375 39.7141 10.9375 40.4688C10.9375 41.2234 11.5501 41.8359 12.3047 41.8359Z" fill="#A9AFC3"/>
<path d="M35 17.2266C34.2454 17.2266 33.6328 17.8391 33.6328 18.5938C33.6328 19.3484 34.2454 19.9609 35 19.9609C35.7546 19.9609 36.3672 19.3484 36.3672 18.5938C36.3672 17.8391 35.7546 17.2266 35 17.2266Z" fill="#A9AFC3"/>
<path d="M45.9375 3.55469C33.6291 3.55469 23.5268 12.0409 22.7455 22.73C11.0235 23.318 0 31.7706 0 43.2031C0 47.9808 1.89056 52.61 5.33203 56.2779C6.01295 59.0849 5.18623 62.0602 3.13492 64.1115C2.74399 64.5024 2.62703 65.0904 2.83852 65.6015C3.05 66.1121 3.54828 66.4453 4.10156 66.4453C8.00072 66.4453 11.7583 64.9163 14.5504 62.222C17.2704 63.1491 20.8192 63.7109 24.0625 63.7109C36.3693 63.7109 46.4705 55.2269 47.254 44.5399C50.1165 44.4128 53.0939 43.884 55.4496 43.0814C58.2417 45.7757 61.9993 47.3047 65.8984 47.3047C66.4517 47.3047 66.95 46.9714 67.1615 46.4609C67.373 45.9498 67.256 45.3618 66.8651 44.9709C64.8138 42.9195 63.987 39.9443 64.668 37.1373C68.1094 33.4694 70 28.8402 70 24.0625C70 12.1835 58.1274 3.55469 45.9375 3.55469ZM24.0625 60.9766C20.8357 60.9766 17.1587 60.3432 14.6957 59.3632C14.168 59.1528 13.5651 59.2911 13.1811 59.7103C11.5303 61.5149 9.38393 62.7731 7.04529 63.3515C8.33397 60.8826 8.66295 57.972 7.87895 55.2141C7.817 54.9967 7.70218 54.798 7.54463 54.6362C4.44283 51.4415 2.73438 47.3811 2.73438 43.2031C2.73438 33.5687 12.5012 25.4297 24.0625 25.4297C34.9797 25.4297 44.5703 33.0213 44.5703 43.2031C44.5703 53.0036 35.3706 60.9766 24.0625 60.9766ZM62.4554 35.4956C62.2978 35.658 62.183 35.8566 62.121 36.0735C61.3371 38.8313 61.666 41.7419 62.9547 44.2109C60.6161 43.633 58.4697 42.3743 56.8189 40.5697C56.4349 40.151 55.832 40.0121 55.3043 40.2225C53.1697 41.0717 50.1245 41.6597 47.2497 41.8018C46.8502 36.6315 44.2712 31.7722 39.8621 28.1641H57.6953C58.4505 28.1641 59.0625 27.552 59.0625 26.7969C59.0625 26.0417 58.4505 25.4297 57.6953 25.4297H35.6617C32.5583 23.8499 29.0736 22.9287 25.4868 22.7354C26.2724 13.5528 35.1447 6.28906 45.9375 6.28906C57.4988 6.28906 67.2656 14.4281 67.2656 24.0625C67.2656 28.2404 65.5572 32.3009 62.4554 35.4956Z" fill="#A9AFC3"/>
<path d="M35 47.3047H12.3047C11.5495 47.3047 10.9375 47.9167 10.9375 48.6719C10.9375 49.427 11.5495 50.0391 12.3047 50.0391H35C35.7552 50.0391 36.3672 49.427 36.3672 48.6719C36.3672 47.9167 35.7552 47.3047 35 47.3047Z" fill="#A9AFC3"/>
<path d="M35 39.1016H17.7734C17.0183 39.1016 16.4062 39.7136 16.4062 40.4688C16.4062 41.2239 17.0183 41.8359 17.7734 41.8359H35C35.7552 41.8359 36.3672 41.2239 36.3672 40.4688C36.3672 39.7136 35.7552 39.1016 35 39.1016Z" fill="#A9AFC3"/>
<path d="M57.6953 17.2266H40.4688C39.7136 17.2266 39.1016 17.8386 39.1016 18.5938C39.1016 19.3489 39.7136 19.9609 40.4688 19.9609H57.6953C58.4505 19.9609 59.0625 19.3489 59.0625 18.5938C59.0625 17.8386 58.4505 17.2266 57.6953 17.2266Z" fill="#A9AFC3"/>
</svg>
