<svg width="70" height="70" viewBox="0 0 70 70" fill="none" xmlns="http://www.w3.org/2000/svg">
<path d="M65.3097 17.5118C60.6364 9.41732 53.0907 3.62742 44.0626 1.20832C35.0348 -1.21078 25.605 0.0307594 17.5106 4.70394C9.41632 9.37713 3.62628 16.9229 1.20731 25.9509C-1.21165 34.9788 0.0297523 44.4087 4.70294 52.503C8.89487 59.7637 15.5574 65.2818 23.4633 68.0405C27.2109 69.3481 31.1232 70.0007 35.0293 70.0007C39.2765 70.0007 43.516 69.2288 47.5234 67.6886C48.2282 67.4178 48.5798 66.6269 48.3088 65.9221C48.0379 65.2173 47.2468 64.8652 46.5423 65.1366C35.8755 69.2364 24.328 67.3736 15.7006 60.8978L16.9255 54.5042L17.5157 54.3125C19.746 53.5879 20.971 51.1838 20.2466 48.9534L19.8135 47.6205C19.7133 47.3121 19.7138 46.986 19.8149 46.6778C20.1948 45.5195 20.0591 44.2523 19.4423 43.2007C18.8256 42.1492 17.7858 41.4118 16.5894 41.1779L13.5037 40.575L7.54983 36.0482C7.19313 35.777 6.72624 35.6978 6.29995 35.8362L2.81417 36.9685C2.7402 35.7217 2.73911 34.4754 2.80938 33.2356C2.94692 33.3638 3.03647 33.4508 3.09157 33.508C3.15979 33.6216 3.24428 33.7258 3.34327 33.816C3.62792 34.0752 3.88577 34.1928 4.42718 34.1928C4.92469 34.1927 5.6612 34.0936 6.87731 33.9139C8.03067 33.7434 9.17801 33.5513 9.18936 33.5494C9.64915 33.4724 10.0378 33.1662 10.2208 32.7376C10.4037 32.3088 10.3554 31.8165 10.0928 31.4312L8.41649 28.9725L10.8175 27.2556C10.9775 27.1411 11.1109 26.9936 11.2087 26.823L14.9306 20.3254L16.4308 18.7179C17.9638 17.0748 18.4013 14.6709 17.5452 12.5933C17.0402 11.3679 16.1581 10.3477 15.0547 9.66013C16.2497 8.72074 17.5237 7.8534 18.8778 7.07177C23.8459 4.20342 29.2676 2.8134 34.6323 2.76021L32.1911 5.82258L23.1382 8.99623C22.7706 9.12502 22.4753 9.40474 22.3268 9.76486L19.7986 15.8937C19.6191 16.3291 19.6761 16.826 19.9497 17.2093L23.6422 22.3817C23.1133 22.8642 22.5986 23.5669 21.9838 24.4394C21.7142 24.8221 21.4596 25.1835 21.2836 25.3861C21.1307 25.5624 20.9775 25.7347 20.8258 25.9053C20.0316 26.7988 19.2104 27.7229 18.6271 28.9572C17.3444 31.6723 17.6034 34.828 19.3031 37.193C20.9466 39.4796 23.6561 40.642 26.548 40.3018C27.0191 40.2466 27.4584 40.1379 27.8835 40.0326C29.0556 39.7426 29.4269 39.7136 29.8029 40.0656C29.9858 40.2369 30.0026 40.2693 29.9989 40.8502C29.9963 41.2199 29.9934 41.6798 30.1209 42.2049C30.325 43.0451 30.8526 43.6257 31.2764 44.0922C31.4871 44.3239 31.705 44.5637 31.7722 44.7247C32.1986 45.7465 32.0129 46.3124 31.606 47.5524C31.5712 47.6585 31.5356 47.7668 31.5 47.8778C30.8818 49.7912 31.7434 51.6891 32.5036 53.3634C32.7505 53.9071 32.9836 54.4203 33.1363 54.874C34.3656 58.5215 35.2871 59.3568 36.0266 59.6932C36.4139 59.8693 36.8148 59.9465 37.2197 59.9464C39.1905 59.9462 41.247 58.1164 42.1918 56.9563C42.7851 56.2279 42.9313 55.4985 43.0379 54.9657C43.0911 54.7008 43.1329 54.4916 43.2128 54.3549C43.335 54.1457 43.479 53.9835 43.6612 53.7782C44.0278 53.3654 44.484 52.8519 44.7794 51.921C45.0039 51.2139 45.167 51.0405 45.7072 50.4652C45.8013 50.3653 45.9015 50.2584 46.0091 50.1413C47.8301 48.1599 47.3611 46.6462 46.8644 45.0436C46.4465 43.6952 47.1775 42.8328 48.945 41.1868C49.7112 40.4733 50.5033 39.7355 51.1157 38.849C51.3836 38.461 52.1989 37.2807 51.6944 36.1108C51.1999 34.9638 49.943 34.771 48.9332 34.6162C48.5344 34.555 47.9318 34.4626 47.74 34.3372C46.8941 33.7842 46.3766 32.63 45.8761 31.5137C45.7764 31.2915 45.6781 31.0722 45.5784 30.8593C45.4007 30.4795 45.2231 30.02 45.0351 29.5336C44.5377 28.2462 43.974 26.787 43.0144 25.7698C42.1518 24.8559 40.5259 24.4156 39.0913 24.0271C38.6088 23.8965 38.1534 23.7732 37.853 23.6623C37.6013 23.5694 37.3281 23.5525 37.0676 23.6138C36.3693 23.7774 35.9337 23.9578 35.6103 24.217C35.5248 24.2855 35.2718 24.5104 35.1235 24.8719C34.623 24.6317 33.9348 24.173 33.5112 23.8906C33.5025 23.8848 33.4936 23.8789 33.4848 23.873C33.6276 23.3018 33.4984 22.8434 33.363 22.5571C32.5993 20.9416 30.0641 21.0681 29.564 21.1106C29.2799 21.1344 28.9205 21.1471 28.5403 21.1605C27.9431 21.1817 27.283 21.2055 26.6299 21.2788L26.6635 21.185C27.1593 19.8037 28.4783 18.8757 29.9459 18.8757H30.7231C31.4779 18.8757 32.0902 18.2634 32.0902 17.5086C32.0902 16.7538 31.4779 16.1416 30.7231 16.1416H29.9459C27.7671 16.1416 25.772 17.2882 24.6538 19.093L22.6146 16.2366L24.6208 11.3736L33.4669 8.2723C33.7095 8.18726 33.9233 8.03551 34.0837 7.83439L38.0161 2.90172C48.0641 3.85752 57.5223 9.49115 62.9421 18.8785C64.3857 21.379 65.4537 24.0114 66.1636 26.7038L65.5841 27.2206C64.8276 27.8955 64.3844 28.8637 64.3674 29.8769C64.3673 29.8879 64.367 29.8989 64.3666 29.9098L63.4224 27.3133C63.2817 26.9258 63.0745 26.5705 62.8068 26.2572L61.1225 24.2853C60.4696 23.521 59.5188 23.0828 58.5138 23.0828H56.4522C55.7204 23.0828 55.0515 23.4836 54.7063 24.1285C54.3611 24.7736 54.3988 25.5526 54.8048 26.1613L55.0134 26.4745C53.6812 27.6201 52.1404 28.5368 50.4998 29.155L47.6738 23.7419V22.5343C47.6738 22.1607 47.5209 21.8032 47.2506 21.5455L44.7059 19.1162C44.5655 18.9822 44.3981 18.8796 44.2151 18.8152L41.9244 18.0102C41.2116 17.7595 40.4315 18.1345 40.1813 18.8467C39.931 19.5591 40.3055 20.3394 41.0178 20.5897L43.0308 21.2972L44.9397 23.1193V24.0774C44.9397 24.2977 44.993 24.5148 45.095 24.7101L48.6329 31.4869C48.951 32.0966 49.6732 32.3753 50.3176 32.1368L51.3478 31.757C53.7411 30.8744 55.9594 29.4545 57.7629 27.6512C58.2237 27.1903 58.2953 26.4686 57.9337 25.9262L57.861 25.817H58.5138C58.7179 25.817 58.9111 25.906 59.0437 26.0613L60.728 28.0332C60.7822 28.0968 60.8242 28.1687 60.8529 28.2476L62.7116 33.3586C62.8713 33.7977 63.2443 34.1247 63.7001 34.2259C63.7985 34.2476 63.8977 34.2583 63.9962 34.2583C64.3548 34.2583 64.7039 34.1171 64.9628 33.8578L65.8475 32.9731C66.4078 32.4127 66.7935 31.7037 66.9778 30.9177C68.3461 41.8832 64.0464 53.2265 54.9582 60.3597C54.3641 60.8258 54.2605 61.685 54.7268 62.2791C55.1929 62.8731 56.052 62.9768 56.6462 62.5104C63.2076 57.3606 67.7152 49.9949 69.3388 41.77C70.9775 33.4659 69.5467 24.8505 65.3097 17.5118ZM6.46428 38.6576L12.1016 42.9439C12.2683 43.0706 12.4616 43.1573 12.6669 43.1974L16.0647 43.8613C16.4983 43.9461 16.8601 44.2025 17.0836 44.5837C17.3072 44.9647 17.3542 45.4057 17.2167 45.8255C16.9337 46.6886 16.9323 47.6015 17.213 48.4652L17.6461 49.7979C17.9049 50.5944 17.4671 51.4531 16.6707 51.712L15.3122 52.1534C14.8382 52.3074 14.4857 52.7071 14.3921 53.1963L13.2986 58.9042C10.8947 56.704 8.78399 54.1036 7.07077 51.1361C4.98061 47.5162 3.67467 43.6551 3.09909 39.751L6.46428 38.6576ZM14.4318 16.8525L12.8236 18.5756C12.7518 18.6525 12.6891 18.7376 12.6367 18.8289L8.9847 25.2049L5.73885 27.5259C5.13428 27.9582 4.98581 28.7939 5.40444 29.4081L6.61837 31.1887C5.91864 31.2929 5.29069 31.3787 4.87315 31.4243C4.7929 31.3473 4.70895 31.2692 4.62214 31.1886C4.29716 30.8867 3.84557 30.4835 3.17237 29.8944C4.28266 23.0225 7.59399 16.5486 12.8019 11.6069C13.7991 11.9209 14.6175 12.6648 15.0173 13.6351C15.4671 14.7264 15.2371 15.9894 14.4318 16.8525ZM25.5785 24.3232C26.1883 23.9801 27.6036 23.9299 28.6369 23.8932C29.051 23.8786 29.4423 23.8647 29.7918 23.8354C29.9762 23.82 30.181 23.8228 30.3742 23.8379C30.2879 24.0594 30.2599 24.3024 30.2974 24.5436C30.3631 24.9678 30.6247 25.3363 31.0031 25.5388C31.2596 25.6761 31.6166 25.9141 31.9945 26.1661C33.0629 26.8784 34.2741 27.6857 35.4119 27.7581C36.4466 27.8253 37.0223 27.2356 37.2689 26.9845C37.2886 26.9645 37.3072 26.9445 37.3269 26.9263C37.4658 26.8131 37.596 26.6614 37.6928 26.4783C37.9114 26.5408 38.1411 26.603 38.3765 26.6669C39.186 26.886 40.6928 27.294 41.0257 27.6467C41.617 28.2736 42.0779 29.4667 42.4846 30.5193C42.6901 31.0513 42.8843 31.5533 43.102 32.0188C43.1956 32.2186 43.2876 32.4244 43.3811 32.6327C44.0119 34.0398 44.7269 35.6348 46.2438 36.6263C46.9317 37.0759 47.7748 37.2051 48.5188 37.3193C48.6088 37.3331 48.7119 37.349 48.8166 37.3662C48.375 37.9822 47.7462 38.5677 47.0819 39.1863C45.3895 40.7624 43.2832 42.7241 44.2532 45.8534C44.7111 47.3311 44.7324 47.4908 43.9962 48.2917C43.8958 48.4009 43.8023 48.5004 43.7147 48.5937C43.0841 49.265 42.5861 49.7952 42.1737 51.094C42.054 51.4712 41.8988 51.6459 41.617 51.9631C41.3917 52.2169 41.111 52.5329 40.8522 52.9759C40.5421 53.5067 40.4396 54.0177 40.3574 54.4283C40.2763 54.8323 40.2304 55.035 40.0718 55.2297C39.7107 55.673 39.0373 56.3166 38.3459 56.7559C37.7033 57.1639 37.3281 57.2197 37.2003 57.212C37.0544 57.0556 36.526 56.3708 35.7276 54.001C35.5307 53.4164 35.2575 52.8149 34.9934 52.2331C34.4111 50.9507 33.8091 49.6245 34.102 48.7182C34.1366 48.6113 34.1708 48.5069 34.2044 48.4047C34.6722 46.9787 35.1138 45.6322 34.2957 43.6717C34.0466 43.0746 33.65 42.6383 33.3004 42.2533C33.0741 42.0044 32.8178 41.7222 32.7783 41.5598C32.7301 41.3617 32.7317 41.1329 32.7334 40.8681C32.7381 40.1537 32.7452 39.0744 31.6721 38.0695C30.1591 36.6533 28.3949 37.0896 27.2274 37.3784C26.8687 37.467 26.53 37.5509 26.2297 37.5862C24.3091 37.8112 22.5944 37.0866 21.5239 35.5969C20.404 34.0387 20.2414 31.9419 21.0998 30.1249C21.5152 29.2456 22.1429 28.5392 22.8697 27.7216C23.0284 27.5429 23.1887 27.3628 23.3489 27.1782C23.6155 26.8708 23.9089 26.4547 24.2191 26.014C24.5895 25.4883 25.2791 24.5094 25.5785 24.3232Z" fill="#A9AFC3"/>
</svg>
