<svg width="70" height="70" viewBox="0 0 70 70" fill="none" xmlns="http://www.w3.org/2000/svg">
<g clip-path="url(#clip0)">
<path d="M67.3213 29.4539H66.0716C64.9373 23.1445 61.9188 17.3361 57.2895 12.7074C51.2995 6.71685 43.3346 3.41797 34.8633 3.41797C26.3921 3.41797 18.4272 6.71685 12.4372 12.7074C7.77483 17.3697 4.74511 23.2283 3.63 29.5911H2.4054C1.0035 29.5911 -0.136719 30.7313 -0.136719 32.1332V41.3714C-0.136719 42.7728 1.0035 43.9135 2.4054 43.9135H4.38836C6.08186 49.7946 9.45871 55.1218 14.2065 59.2004C14.6364 59.5694 15.2842 59.5208 15.6538 59.0909C16.0234 58.6605 15.9742 58.0126 15.5443 57.6431C14.316 56.5883 13.1864 55.4433 12.1605 54.2235C13.7296 53.5623 15.3328 53.0171 16.9478 52.5701C17.7147 53.9234 18.5751 55.2291 19.5295 56.4762C21.6203 59.2089 23.9814 61.6133 26.4979 63.5952C24.407 62.9826 22.3851 62.1409 20.4779 61.0808C19.9823 60.8058 19.3575 60.9842 19.0825 61.4798C18.8069 61.9754 18.9853 62.6002 19.4809 62.8758C24.1597 65.4751 29.479 66.8492 34.8633 66.8492C43.3346 66.8492 51.299 63.5503 57.2895 57.5598C61.1374 53.7124 63.8713 49.0485 65.3367 43.9605H67.3213C68.7232 43.9605 69.8634 42.8203 69.8634 41.4184V31.996C69.8634 30.5946 68.7232 29.4539 67.3213 29.4539ZM63.9818 29.4539H56.8415C56.756 28.9219 56.6615 28.39 56.5515 27.8586C55.9416 24.9144 54.9883 22.1031 53.7071 19.4493C53.8961 19.3975 54.0863 19.3468 54.2742 19.2934C55.5811 18.9196 57.2447 18.4111 58.8789 17.712C61.4312 21.216 63.1631 25.2097 63.9818 29.4539ZM54.7837 29.5911H44.1773C44.1421 29.0763 44.1036 28.5615 44.0582 28.0477C43.8548 25.7512 43.5546 23.5279 43.168 21.4019C46.1101 21.0964 48.9518 20.6184 51.6782 19.97C52.9786 22.5811 53.9373 25.3592 54.5413 28.2752C54.6321 28.7131 54.7106 29.1521 54.7837 29.5911ZM55.838 14.1584C56.4425 14.763 57.0166 15.39 57.5619 16.0356C56.1947 16.5847 54.819 17.0023 53.7097 17.3195C53.3882 17.4114 53.0646 17.4995 52.7399 17.586C52.091 16.4228 51.378 15.2922 50.5973 14.1985C48.5513 11.3338 46.125 8.82585 43.3549 6.69869C48.022 8.08618 52.2988 10.6192 55.838 14.1584ZM38.0287 5.63858C42.3877 8.08885 46.0546 11.369 48.9267 15.3916C49.5526 16.269 50.1321 17.1721 50.6683 18.0971C48.1331 18.6755 45.4954 19.1043 42.7669 19.3804C41.5786 13.8481 39.7788 9.08273 37.5246 5.58999C37.6928 5.6044 37.861 5.62043 38.0287 5.63858ZM34.8633 5.47089C34.8885 5.47089 34.913 5.47142 34.9381 5.47142C37.4322 8.76283 39.4263 13.6794 40.7108 19.5588C38.5179 19.7169 36.2717 19.7815 33.9757 19.7479C32.4174 19.7255 30.7495 19.6769 29.0133 19.5711C30.2977 13.6863 32.2929 8.76496 34.7886 5.47142C34.8137 5.47142 34.8382 5.47089 34.8633 5.47089ZM32.2021 5.58999C29.942 9.09074 28.1396 13.8706 26.9513 19.4189C24.3744 19.1946 21.6838 18.8234 18.9922 18.2103C19.5465 17.2453 20.1479 16.3043 20.8 15.391C23.6721 11.369 27.339 8.08885 31.698 5.63805C31.8657 5.62043 32.0339 5.6044 32.2021 5.58999ZM26.5507 21.4451C26.1678 23.5579 25.8703 25.7667 25.6685 28.0477C25.6231 28.5615 25.5846 29.0763 25.5499 29.5911H14.9419C15.0145 29.1521 15.0946 28.7131 15.1854 28.2752C15.7804 25.402 16.7214 22.6633 17.9924 20.0854C20.8902 20.7808 23.7854 21.1957 26.5507 21.4451ZM13.8887 14.1584C17.4279 10.6192 21.7047 8.08618 26.3718 6.69869C23.6011 8.82585 21.1749 11.3338 19.1294 14.1985C18.3252 15.3248 17.593 16.4912 16.9291 17.6918C15.32 17.2458 13.7221 16.7016 12.1589 16.0426C12.7058 15.3948 13.282 14.7656 13.8887 14.1584ZM10.8467 17.7142C12.5269 18.4517 14.2433 19.0563 15.97 19.5524C14.7139 22.1762 13.7771 24.9523 13.1752 27.8586C13.0561 28.4354 12.9531 29.0133 12.8628 29.5911H5.71817C6.52566 25.2962 8.26776 21.255 10.8467 17.7142ZM2.4054 41.8606C2.1357 41.8606 1.9162 41.6411 1.9162 41.3708V32.1327C1.9162 31.863 2.1357 31.6435 2.4054 31.6435H32.035C32.6021 31.6435 33.0614 31.1842 33.0614 30.617C33.0614 30.0504 32.6021 29.5906 32.035 29.5906H27.6066C27.6386 29.1366 27.6733 28.6821 27.7134 28.2287C27.9168 25.9317 28.2181 23.7149 28.6069 21.6027C30.4793 21.7228 32.2737 21.7762 33.9464 21.8003C34.3512 21.8061 34.7549 21.8093 35.1576 21.8093C37.1828 21.8093 39.17 21.7335 41.1172 21.5861C41.507 23.7031 41.8093 25.9259 42.0133 28.2287C42.0534 28.6821 42.0886 29.1366 42.1207 29.5906H38.4437C37.877 29.5906 37.4172 30.0504 37.4172 30.617C37.4172 31.1842 37.877 31.6435 38.4437 31.6435H54.365V41.86H2.4054V41.8606ZM54.1188 43.913C53.5276 46.1197 52.7095 48.2591 51.6718 50.295C48.9502 49.6482 46.1149 49.1692 43.1781 48.8637C43.4729 47.2588 43.7148 45.6043 43.9018 43.9135H54.1188V43.913ZM41.8387 43.913C41.6534 45.5434 41.4152 47.1371 41.1263 48.6816C38.7892 48.5043 36.3945 48.4306 33.9464 48.4664C32.2705 48.4904 30.4729 48.5438 28.5972 48.6645C28.3099 47.1253 28.0728 45.5376 27.888 43.913H41.8387ZM10.8531 52.5503C8.94655 49.9227 7.4875 47.0046 6.52994 43.913H13.4898C14.0794 46.2607 14.9072 48.5406 15.9694 50.7147C14.2449 51.2103 12.5306 51.8138 10.8531 52.5503ZM15.61 43.913H25.8233C26.0087 45.5899 26.249 47.2311 26.5406 48.8231C23.7795 49.072 20.8892 49.4869 17.9967 50.1801C16.9868 48.179 16.19 46.078 15.61 43.913ZM31.6878 64.6222C27.8474 62.4587 24.2089 59.2137 21.1599 55.2286C20.3791 54.2091 19.6672 53.1463 19.02 52.0499C21.7004 51.4411 24.3792 51.072 26.9454 50.8483C27.3513 52.7127 27.8325 54.4975 28.3868 56.175C29.205 58.6471 30.4894 61.9449 32.2166 64.6756C32.0403 64.6601 31.8641 64.6414 31.6878 64.6222ZM34.8633 64.7963C34.8382 64.7963 34.8137 64.7952 34.7886 64.7952C33.1725 62.6542 31.6355 59.4583 30.3361 55.5303C29.8314 54.0045 29.3909 52.3853 29.0138 50.6955C30.75 50.5903 32.4174 50.5412 33.9757 50.5187C36.2717 50.4862 38.5174 50.5508 40.7102 50.7089C40.3337 52.3938 39.8937 54.0088 39.3906 55.5303C38.0917 59.4583 36.5542 62.6542 34.9381 64.7952C34.913 64.7957 34.8885 64.7963 34.8633 64.7963ZM37.508 64.6788C39.2362 61.9476 40.5217 58.6482 41.3393 56.175C41.8905 54.5092 42.3685 52.7383 42.7722 50.8878C45.489 51.1628 48.1149 51.5885 50.6394 52.1631C50.0103 53.2195 49.3203 54.2443 48.5668 55.2286C45.5146 59.2175 41.8723 62.4651 38.0282 64.6286C37.8551 64.6467 37.6816 64.6633 37.508 64.6788ZM55.838 56.1082C52.2619 59.6843 47.9328 62.2328 43.2096 63.6101C45.733 61.6256 48.1011 59.2159 50.1972 56.4762C51.127 55.2617 51.9666 53.9907 52.718 52.6747C53.0502 52.7634 53.3813 52.8536 53.7097 52.9471C54.8179 53.2643 56.1926 53.682 57.5592 54.2304C57.014 54.8761 56.4425 55.5042 55.838 56.1082ZM58.8757 52.5535C57.2425 51.8555 55.58 51.3471 54.2742 50.9738C54.0863 50.9198 53.8961 50.8696 53.7071 50.8178C54.7864 48.6276 55.6265 46.328 56.2246 43.9605H63.1909C62.2381 47.0329 60.7866 49.9302 58.8757 52.5535ZM67.8105 41.3714C67.8105 41.6411 67.591 41.8606 67.3213 41.8606H56.4174V31.6435H67.3213C67.591 31.6435 67.8105 31.8635 67.8105 32.1332V41.3714Z" fill="#A9AFC3"/>
<path d="M26.2143 36.3634C26.2143 36.6363 25.9793 36.8788 25.7064 36.8788C25.4105 36.8788 25.1905 36.6363 25.1905 36.3634C25.1905 36.0825 25.4105 35.8475 25.7064 35.8475C25.9793 35.8475 26.2143 36.0825 26.2143 36.3634ZM26.2143 38.5776C26.2143 38.8511 25.9793 39.0935 25.7064 39.0935C25.4105 39.0935 25.1905 38.8511 25.1905 38.5776C25.1905 38.2973 25.4105 38.0623 25.7064 38.0623C25.9793 38.0623 26.2143 38.2973 26.2143 38.5776Z" fill="#A9AFC3"/>
<path d="M48.6432 38.9568C48.5903 39.0861 48.4237 39.1314 48.2565 39.1314C48.0669 39.1314 47.9003 39.0706 47.8544 38.9568L47.2706 37.3034L46.6938 38.9493C46.6484 39.0706 46.4663 39.1314 46.2767 39.1314C46.1176 39.1314 45.951 39.0861 45.8976 38.9493L44.7296 35.9538C44.6991 35.8929 44.6917 35.8475 44.6917 35.8096C44.6917 35.5746 45.0708 35.4075 45.3288 35.4075C45.4575 35.4075 45.5712 35.4603 45.6097 35.5666L46.3681 37.7205L46.9368 35.847C46.9897 35.6729 47.1184 35.6499 47.2701 35.6499C47.4143 35.6499 47.551 35.6729 47.6039 35.847L48.1652 37.7279L48.9316 35.5666C48.9689 35.4678 49.0758 35.4075 49.2119 35.4075C49.4544 35.4075 49.8416 35.5741 49.8416 35.8171C49.8416 35.8625 49.8341 35.9154 49.8112 35.9538L48.6432 38.9568Z" fill="#A9AFC3"/>
<path d="M42.9314 38.9568C42.8785 39.0861 42.7119 39.1314 42.5447 39.1314C42.3551 39.1314 42.1885 39.0706 42.1426 38.9568L41.5588 37.3034L40.9821 38.9493C40.9367 39.0706 40.7551 39.1314 40.5649 39.1314C40.4058 39.1314 40.2392 39.0861 40.1858 38.9493L39.0178 35.9538C38.9873 35.8929 38.9799 35.8475 38.9799 35.8096C38.9799 35.5746 39.359 35.4075 39.617 35.4075C39.7457 35.4075 39.8595 35.4603 39.8979 35.5666L40.6563 37.7205L41.225 35.847C41.2779 35.6729 41.4072 35.6499 41.5588 35.6499C41.703 35.6499 41.8392 35.6729 41.8921 35.847L42.4534 37.7279L43.2198 35.5666C43.2577 35.4678 43.364 35.4075 43.5001 35.4075C43.7431 35.4075 44.1298 35.5741 44.1298 35.8171C44.1298 35.8625 44.1223 35.9154 44.0994 35.9538L42.9314 38.9568Z" fill="#A9AFC3"/>
<path d="M37.2202 38.9568C37.1668 39.0861 37.0001 39.1314 36.8335 39.1314C36.6439 39.1314 36.4768 39.0706 36.4314 38.9568L35.8471 37.3034L35.2709 38.9493C35.2255 39.0706 35.0434 39.1314 34.8538 39.1314C34.6946 39.1314 34.5275 39.0861 34.4746 38.9493L33.3066 35.9538C33.2762 35.8929 33.2687 35.8475 33.2687 35.8096C33.2687 35.5746 33.6479 35.4075 33.9058 35.4075C34.0345 35.4075 34.1483 35.4603 34.1862 35.5666L34.9445 37.7205L35.5133 35.847C35.5667 35.6729 35.6954 35.6499 35.8471 35.6499C35.9913 35.6499 36.128 35.6729 36.1809 35.847L36.7422 37.7279L37.508 35.5666C37.5459 35.4678 37.6522 35.4075 37.7889 35.4075C38.0314 35.4075 38.4186 35.5741 38.4186 35.8171C38.4186 35.8625 38.4111 35.9154 38.3882 35.9538L37.2202 38.9568Z" fill="#A9AFC3"/>
<path d="M23.3394 38.0468C23.3394 37.3798 21.5418 37.7969 21.5418 36.5301C21.5418 35.9918 21.883 35.4 22.8994 35.4C23.5141 35.4 24.1053 35.6126 24.1053 35.893C24.1053 36.0297 23.9766 36.3635 23.749 36.3635C23.5669 36.3635 23.3319 36.1434 22.9148 36.1434C22.5357 36.1434 22.384 36.333 22.384 36.4847C22.384 37.0385 24.2041 36.6593 24.2041 38.0089C24.2041 38.6845 23.7036 39.1165 22.8086 39.1165C22.0352 39.1165 21.436 38.7977 21.436 38.4639C21.436 38.3048 21.5722 38.0319 21.7618 38.0319C21.9818 38.0319 22.149 38.3731 22.7861 38.3731C23.2331 38.3731 23.3394 38.1985 23.3394 38.0468Z" fill="#A9AFC3"/>
<path d="M18.174 35.7488V35.9763C18.3481 35.6809 18.7124 35.4 19.1978 35.4C19.9562 35.4 20.5554 36.098 20.5554 36.9397V37.5614C20.5554 38.3731 19.9338 39.1165 19.2283 39.1165C18.7733 39.1165 18.3786 38.8282 18.2349 38.5173V40.4132C18.2349 40.5724 18.0074 40.7241 17.734 40.7241C17.4536 40.7241 17.2565 40.5724 17.2565 40.4132V35.7488C17.2565 35.5667 17.4611 35.4454 17.719 35.4454C17.9845 35.4454 18.174 35.5667 18.174 35.7488ZM19.577 36.9397C19.577 36.5985 19.2662 36.2572 18.887 36.2572C18.5687 36.2572 18.2349 36.5146 18.2349 36.9397V37.6981C18.2349 37.8572 18.5153 38.2594 18.902 38.2594C19.2587 38.2594 19.577 37.9106 19.577 37.5614V36.9397Z" fill="#A9AFC3"/>
<path d="M15.1326 37.8193C15.1326 38.1152 15.2383 38.2214 15.5571 38.2214H15.853C16.1334 38.2214 16.2701 38.4265 16.2701 38.6311C16.2701 38.8436 16.1334 39.0482 15.853 39.0482H15.5571C14.6471 39.0482 14.1542 38.6764 14.1542 37.8193V34.1412C14.1542 33.9591 14.4121 33.8379 14.6396 33.8379C14.8901 33.8379 15.1326 33.9591 15.1326 34.1412V35.4454H16.0277C16.1868 35.4454 16.2776 35.6275 16.2776 35.8022C16.2776 35.9837 16.1868 36.1584 16.0277 36.1584H15.1326V37.8193Z" fill="#A9AFC3"/>
<path d="M12.0452 37.8193C12.0452 38.1152 12.1515 38.2214 12.4703 38.2214H12.7662C13.0465 38.2214 13.1833 38.4265 13.1833 38.6311C13.1833 38.8436 13.0465 39.0482 12.7662 39.0482H12.4703C11.5603 39.0482 11.0673 38.6764 11.0673 37.8193V34.1412C11.0673 33.9591 11.3247 33.8379 11.5528 33.8379C11.8027 33.8379 12.0457 33.9591 12.0457 34.1412V35.4454H12.9408C13.0999 35.4454 13.1907 35.6275 13.1907 35.8022C13.1907 35.9837 13.0999 36.1584 12.9408 36.1584H12.0457V37.8193H12.0452Z" fill="#A9AFC3"/>
<path d="M7.63121 38.7373C7.63121 38.8889 7.40317 39.0481 7.13774 39.0481C6.84988 39.0481 6.65228 38.8889 6.65228 38.7373V33.6482C6.65228 33.4661 6.84988 33.3444 7.13774 33.3444C7.40317 33.3444 7.63121 33.4661 7.63121 33.6482V35.9762C7.7674 35.6809 8.10866 35.3999 8.58664 35.3999C9.28412 35.3999 9.89081 36.098 9.89081 36.9396V38.7367C9.89081 38.9418 9.64087 39.0481 9.39788 39.0481C9.17037 39.0481 8.91242 38.9418 8.91242 38.7367V36.9396C8.91242 36.5984 8.60907 36.2571 8.25286 36.2571C7.94203 36.2571 7.63068 36.5145 7.63068 36.9396V38.7373H7.63121Z" fill="#A9AFC3"/>
<path d="M30.5449 33.5421C30.5449 33.5875 30.5375 33.6329 30.5145 33.6783L27.7919 39.1849C27.7385 39.2907 27.6172 39.3516 27.496 39.3516C27.276 39.3516 27.1318 39.1774 27.1318 39.0178C27.1318 38.9724 27.1473 38.927 27.1697 38.8891L29.8923 33.36C29.9457 33.2537 30.052 33.2008 30.1658 33.2008C30.3479 33.2008 30.5449 33.337 30.5449 33.5421Z" fill="#A9AFC3"/>
<path d="M32.8361 33.5421C32.8361 33.5875 32.8281 33.6329 32.8056 33.6783L30.0825 39.1849C30.0296 39.2907 29.9084 39.3516 29.7871 39.3516C29.5671 39.3516 29.4229 39.1774 29.4229 39.0178C29.4229 38.9724 29.4379 38.927 29.4608 38.8891L32.1835 33.36C32.2369 33.2537 32.3426 33.2008 32.4569 33.2008C32.6385 33.2008 32.8361 33.337 32.8361 33.5421Z" fill="#A9AFC3"/>
<path d="M65.0975 34.5625L63.9904 34.4018L63.4953 33.3983C63.2336 32.8685 62.7049 32.54 62.1142 32.54C61.5236 32.54 60.9943 32.869 60.7331 33.3983L60.2381 34.4018L59.131 34.5625C58.5462 34.6474 58.0703 35.049 57.8877 35.6103C57.705 36.1722 57.8546 36.7773 58.2775 37.1896L59.0786 37.9703L58.8896 39.0732C58.7892 39.6548 59.0242 40.2321 59.5021 40.5792C59.9796 40.9264 60.6007 40.9718 61.1241 40.6967L62.1142 40.176L63.1044 40.6967C63.3319 40.8158 63.5775 40.8751 63.8227 40.8751C64.1404 40.8751 64.4566 40.7752 64.7263 40.5792C65.2037 40.2321 65.4387 39.6548 65.3389 39.0732L65.1498 37.9703L65.9509 37.1896C66.3739 36.7773 66.5229 36.1722 66.3408 35.6103C66.1581 35.049 65.6817 34.6474 65.0975 34.5625ZM63.5236 36.6886C63.161 37.0427 62.9954 37.5522 63.0809 38.0515L63.1401 38.396L62.8309 38.2336C62.3823 37.9976 61.8467 37.9976 61.3975 38.2336L61.0883 38.396L61.147 38.0515C61.233 37.5522 61.0675 37.0427 60.7043 36.6886L60.4544 36.4445L60.7999 36.3943C61.3014 36.3217 61.735 36.0066 61.9599 35.5521L62.1142 35.2386L62.2691 35.5521C62.4934 36.0066 62.9271 36.3217 63.4285 36.3943L63.7741 36.4445L63.5236 36.6886Z" fill="#A9AFC3"/>
</g>
<defs>
<clipPath id="clip0">
<rect width="70" height="70" fill="white"/>
</clipPath>
</defs>
</svg>
