<svg width="70" height="70" viewBox="0 0 70 70" fill="none" xmlns="http://www.w3.org/2000/svg">
<path d="M54.1936 5.74439V5.64516C54.1936 2.5326 51.6609 0 48.5484 0H14.6774C11.5649 0 9.03226 2.5326 9.03226 5.64516V11.5445C3.20738 17.9879 0 26.2963 0 35C0 37.6737 0.319745 40.3221 0.915685 42.9032H0V48.5484C0 51.6609 2.5326 54.1936 5.64516 54.1936H5.74439C12.2501 64.0974 23.1314 70 35 70C54.2983 70 70 54.2983 70 35C70 23.1303 64.0974 12.249 54.1936 5.74439ZM51.9355 5.64516V20.3226H45.1613V5.64516C45.1613 3.77796 46.6812 2.25806 48.5484 2.25806C50.4156 2.25806 51.9355 3.77796 51.9355 5.64516ZM14.6774 2.25806H44.0615C43.3448 3.20407 42.9032 4.36949 42.9032 5.64516V25.2373C42.1954 24.9854 41.4379 24.8387 40.6452 24.8387C36.9091 24.8387 33.871 27.8768 33.871 31.6129C33.871 31.7441 33.8836 31.8726 33.8903 32.0016C31.2099 32.936 29.3548 35.4653 29.3548 38.3871C29.3548 38.9257 29.4249 39.4472 29.5445 39.9505C28.5985 40.7367 27.9005 41.7604 27.4965 42.9032H11.2903V5.64516C11.2903 3.77796 12.8102 2.25806 14.6774 2.25806ZM58.1838 34.2254C59.8376 34.9118 60.9677 36.5287 60.9677 38.3871C60.9677 40.8778 58.9423 42.9032 56.4516 42.9032V45.1613C58.7924 45.1613 60.858 43.9678 62.0753 42.159C62.7765 42.9451 63.1944 43.9556 63.2236 45.0339C63.2644 46.5092 62.4446 47.9569 61.0289 48.9051C59.6458 49.8312 58.536 49.743 57.7262 49.5622L56.5746 49.3059L56.3689 50.468C56.1093 51.941 55.1252 53.1864 53.7376 53.7983L53.0645 54.0954V56.4516H49.6774V47.4194H50.8064C52.6737 47.4194 54.1936 45.8995 54.1936 44.0323C54.1936 42.1651 52.6737 40.6452 50.8064 40.6452C48.9392 40.6452 47.4194 42.1651 47.4194 44.0323V45.1613H45.1613V44.0323C45.1613 42.1651 43.6414 40.6452 41.7742 40.6452C39.907 40.6452 38.3871 42.1651 38.3871 44.0323C38.3871 45.8995 39.907 47.4194 41.7742 47.4194H42.9032V56.4516H39.5161V54.0954L38.843 53.7972C37.4554 53.1852 36.4725 51.9399 36.2117 50.4669L36.0061 49.3047L34.8545 49.5611C34.0435 49.7419 32.9338 49.8285 31.5517 48.904C30.1371 47.9558 29.3162 46.5081 29.357 45.0328C29.3874 43.9545 29.8052 42.944 30.5065 42.1579C31.7226 43.9678 33.7883 45.1613 36.129 45.1613V42.9032C33.6383 42.9032 31.6129 40.8778 31.6129 38.3871C31.6129 36.5287 32.7419 34.9118 34.3958 34.2265C35.4212 36.6676 37.8353 38.3871 40.6452 38.3871V36.129C38.1545 36.129 36.129 34.1036 36.129 31.6129C36.129 29.1222 38.1545 27.0968 40.6452 27.0968C43.1359 27.0968 45.1613 29.1222 45.1613 31.6129H47.4194C47.4194 29.1222 49.4448 27.0968 51.9355 27.0968C54.4262 27.0968 56.4516 29.1222 56.4516 31.6129C56.4516 34.1036 54.4262 36.129 51.9355 36.129V38.3871C54.7443 38.3871 57.1595 36.6676 58.1838 34.2254ZM39.9235 63.2258H51.5639C48.8803 64.8074 45.954 66.017 42.8525 66.7832C41.482 65.9685 40.45 64.706 39.9235 63.2258ZM37.2581 60.9677C36.6362 60.9677 36.129 60.4606 36.129 59.8387C36.129 59.2169 36.6362 58.7097 37.2581 58.7097H55.3226C55.9042 58.7097 56.3678 59.1579 56.4279 59.7246C55.9334 60.1535 55.429 60.5692 54.9091 60.9677H37.2581ZM42.9032 45.1613H41.7742C41.1523 45.1613 40.6452 44.6541 40.6452 44.0323C40.6452 43.4104 41.1523 42.9032 41.7742 42.9032C42.396 42.9032 42.9032 43.4104 42.9032 44.0323V45.1613ZM47.4194 56.4516H45.1613V47.4194H47.4194V56.4516ZM49.6774 45.1613V44.0323C49.6774 43.4104 50.1846 42.9032 50.8064 42.9032C51.4283 42.9032 51.9355 43.4104 51.9355 44.0323C51.9355 44.6541 51.4283 45.1613 50.8064 45.1613H49.6774ZM2.25806 35C2.25806 27.7324 4.64458 20.757 9.03226 15.0567V42.9032H3.23604C2.59766 40.3293 2.25806 37.6781 2.25806 35ZM2.25806 48.5484V45.1613H27.1067C27.1161 47.3471 28.2892 49.4371 30.2942 50.7805C31.5633 51.6306 32.8682 52.011 34.2662 51.9206C34.2684 51.9267 34.2706 51.9311 34.2729 51.9355H5.64516C3.77796 51.9355 2.25806 50.4156 2.25806 48.5484ZM8.46995 54.1936H35.6433C36.1097 54.7085 36.6428 55.1655 37.257 55.521V56.4516C35.3898 56.4516 33.8699 57.9715 33.8699 59.8387C33.8699 61.7059 35.3898 63.2258 37.257 63.2258H37.5574C37.9659 64.8041 38.8039 66.2292 39.9505 67.3671C38.3375 67.6135 36.6836 67.7419 35 67.7419C24.3971 67.7419 14.6289 62.7142 8.46995 54.1936ZM58.2014 58.0774C57.6055 57.1065 56.5431 56.4516 55.3226 56.4516V55.521C56.7251 54.7085 57.7841 53.4317 58.3144 51.9206C59.7158 52.0121 61.0174 51.6306 62.2864 50.7805C64.3493 49.3985 65.544 47.2264 65.4817 44.9716C65.4276 43.008 64.5274 41.1882 63.0373 39.9505C63.1558 39.4472 63.2258 38.9257 63.2258 38.3871C63.2258 35.4653 61.3696 32.9349 58.6904 32.0016C58.697 31.8726 58.7097 31.7441 58.7097 31.6129C58.7097 27.8768 55.6715 24.8387 51.9355 24.8387C49.5826 24.8387 47.5054 26.0444 46.2903 27.8724C45.9706 27.3928 45.5891 26.959 45.1613 26.5753V22.5806H54.1936V8.46995C62.7142 14.6278 67.7419 24.3971 67.7419 35C67.7419 43.9948 64.0941 52.1532 58.2014 58.0774Z" fill="#A9AFC3"/>
</svg>
