<svg width="70" height="70" viewBox="0 0 70 70" fill="none" xmlns="http://www.w3.org/2000/svg">
<g clip-path="url(#clip0)">
<path d="M60.1613 0H57.1516C55.8287 0 55.8287 2.05108 57.1516 2.05108H60.1613C63.2693 2.05108 65.798 4.57062 65.798 7.66748V31.4015C65.798 34.4984 63.2695 37.018 60.1613 37.018H56.7479C56.5226 37.018 56.3037 37.0921 56.1247 37.229L49.8613 42.02V38.0435C49.8613 37.4772 49.4023 37.018 48.8358 37.018H36.3543C35.3321 37.018 34.3498 36.7482 33.4834 36.2353V24.723C33.4834 22.5666 32.3852 20.6615 30.7174 19.5343V7.66748C30.7174 4.57062 33.2461 2.05108 36.3543 2.05108H50.7249C52.0477 2.05108 52.0477 0 50.7249 0H36.3543C32.1151 0 28.6663 3.43966 28.6663 7.66748V18.6329C28.1967 18.5208 27.7075 18.4597 27.204 18.4597H8.43034C4.96798 18.4597 2.15103 21.2694 2.15103 24.723V26.9375C2.15103 28.2603 4.20211 28.2603 4.20211 26.9375V24.723C4.20211 22.4004 6.09881 20.5108 8.43034 20.5108H27.2041C29.5357 20.5108 31.4325 22.4004 31.4325 24.723V36.6436C31.4202 36.7341 31.4207 36.8253 31.4325 36.9152V43.4392C31.4325 43.5682 31.4247 43.6966 31.4131 43.8243H29.2981C26.9677 43.8243 25.0249 45.5063 24.6221 47.717C24.5288 47.7521 24.4393 47.8012 24.3563 47.8652L19.7694 51.4068V48.677C19.7694 48.1106 19.3103 47.6515 18.7438 47.6515H8.43034C6.09881 47.6515 4.20211 45.7619 4.20211 43.4392V33.0907C4.20211 31.7679 2.15103 31.7679 2.15103 33.0907V43.4394C2.15103 46.893 4.96798 49.7027 8.43034 49.7027H17.7184V53.4944C17.7184 54.3171 18.7173 54.8105 19.3708 54.3063L24.5443 50.3117V61.849C24.5443 64.4641 26.677 66.5915 29.2983 66.5915H35.5917V68.9846C35.5917 69.8069 36.5905 70.301 37.2439 69.7964L41.3947 66.5915H42.621C45.2423 66.5915 47.375 64.464 47.375 61.849V60.0282C47.375 58.7054 45.3239 58.7054 45.3239 60.0282V61.849C45.3239 63.3332 44.1114 64.5404 42.621 64.5404H41.0448C40.818 64.5404 40.5975 64.6157 40.4181 64.7542L37.6426 66.897V65.5658C37.6426 64.9995 37.1836 64.5403 36.6171 64.5403H29.2981C27.8078 64.5403 26.5952 63.3329 26.5952 61.8489V48.5669C26.5952 47.0828 27.8077 45.8755 29.2981 45.8755H42.621C44.1113 45.8755 45.3239 47.0829 45.3239 48.5669V53.6015C45.3239 54.9243 47.375 54.9243 47.375 53.6015V48.5671C47.375 45.9519 45.2423 43.8246 42.621 43.8246H33.4718C33.4796 43.6964 33.4836 38.5166 33.4836 38.5166C34.3878 38.8802 35.3573 39.0692 36.3544 39.0692H47.8104V44.0957C47.8104 44.9163 48.805 45.4103 49.459 44.9103L57.0953 39.0692H60.1614C64.4004 39.0692 67.8492 35.6295 67.8492 31.4016V7.66748C67.8491 3.43966 64.4003 0 60.1613 0V0Z" fill="#A9AFC3"/>
<path d="M35.9472 51.1671C35.1191 50.4853 34.0174 50.2164 32.9123 50.4851C31.4961 50.829 30.067 52.1529 30.067 54.3351C30.067 55.6933 30.5627 56.8723 31.5824 57.9394C32.4153 58.8111 33.6172 59.64 35.4793 60.6272C35.6296 60.707 35.7946 60.7468 35.9597 60.7468C36.1247 60.7468 36.2898 60.707 36.44 60.6272C39.6887 58.905 41.8521 57.176 41.8521 54.3351C41.8521 52.141 40.3724 50.8306 38.9057 50.5053C37.8039 50.2608 36.7357 50.5203 35.9472 51.1671ZM39.8009 54.3351C39.8009 55.8674 38.7845 57.0005 35.9595 58.5557C33.1345 57.0004 32.118 55.8672 32.118 54.3351C32.118 53.195 32.7782 52.6283 33.3961 52.4782C33.51 52.4505 33.632 52.435 33.7574 52.435C34.2221 52.435 34.7331 52.6496 35.0482 53.2605C35.2277 53.608 35.5906 53.8235 35.9799 53.8155C36.3708 53.8077 36.7235 53.5782 36.8888 53.2238C37.2207 52.5125 37.9186 52.3874 38.4612 52.5078C39.109 52.6513 39.8009 53.2069 39.8009 54.3351Z" fill="#A9AFC3"/>
<path d="M10.9324 35.6201C10.3659 35.6201 9.90683 36.0793 9.90683 36.6456C9.90683 37.212 10.3659 37.6712 10.9324 37.6712H13.9554L13.3907 41.0868C13.2982 41.6455 13.6764 42.1734 14.2352 42.2659C14.2919 42.2753 14.3481 42.2798 14.4036 42.2798C14.8964 42.2798 15.3311 41.9236 15.4142 41.4214L16.0342 37.6713H18.5082L17.9435 41.0869C17.8511 41.6456 18.2293 42.1736 18.788 42.266C18.8447 42.2754 18.9009 42.28 18.9565 42.28C19.4493 42.28 19.884 41.9237 19.9671 41.4215L20.5871 37.6715H24.7019C25.2684 37.6715 25.7275 37.2123 25.7275 36.6459C25.7275 36.0795 25.2684 35.6204 24.7019 35.6204H20.9262L21.3398 33.1186H24.7019C25.2684 33.1186 25.7275 32.6594 25.7275 32.0931C25.7275 31.5267 25.2684 31.0675 24.7019 31.0675H21.6789L22.2437 27.6519C22.3361 27.0932 21.9579 26.5653 21.3992 26.4728C20.8398 26.3801 20.3125 26.7586 20.2201 27.3173L19.6001 31.0674H17.1261L17.6908 27.6518C17.7832 27.0931 17.405 26.5651 16.8463 26.4727C16.2862 26.38 15.7598 26.7585 15.6672 27.3172L15.0472 31.0673H10.9324C10.3659 31.0673 9.90683 31.5264 9.90683 32.0928C9.90683 32.6592 10.3659 33.1183 10.9324 33.1183H14.7081L14.2945 35.6201H10.9324ZM16.7871 33.1183H19.2611L18.8475 35.6201H16.3735L16.7871 33.1183Z" fill="#A9AFC3"/>
<path d="M50.8202 7.57689C49.5181 7.24448 48.1912 8.2733 48.1912 9.61881C48.1912 11.0889 47.6554 12.5056 46.6834 13.6073L43.8578 16.8047C43.6748 16.524 43.3587 16.3381 42.9987 16.3381H37.4826C36.9161 16.3381 36.4571 16.7973 36.4571 17.3637V29.7748C36.4571 30.3411 36.9161 30.8003 37.4826 30.8003H42.9987C43.4131 30.8003 43.7692 30.554 43.9309 30.2004C45.0477 30.8827 46.3418 31.2517 47.6584 31.2517H57.4068C58.8964 31.2517 60.1253 29.9591 60.0554 28.4733C60.0244 27.8153 60.0583 18.9802 60.0583 18.784C60.0583 17.322 58.8688 16.1323 57.4098 16.1323L52.3405 16.1172L52.5504 15.6201C53.5096 13.3485 53.3517 10.7144 52.1284 8.57344C51.8429 8.07325 51.3781 7.71951 50.8202 7.57689C50.2621 7.43441 51.3781 7.71951 50.8202 7.57689C49.5182 7.24448 51.3781 7.71951 50.8202 7.57689ZM41.9731 28.7492H38.5082V18.3892H41.9731V28.7492ZM57.4068 18.1833C57.738 18.1833 58.0074 18.4527 58.0074 18.7838C58.0074 18.979 58.0053 19.5086 58.0026 20.2266C57.9874 24.1909 57.9773 27.9455 58.0065 28.5695C58.0172 28.7947 57.9077 28.9449 57.8415 29.0143C57.7269 29.1344 57.5725 29.2005 57.4068 29.2005H47.6584C46.4964 29.2005 45.3592 28.7978 44.4559 28.0666L44.0242 27.7171V19.7137L48.2208 14.9649C49.5244 13.4876 50.2423 11.5889 50.2423 9.61867C50.2423 9.5607 50.3214 9.54565 50.3477 9.59078C51.2559 11.1801 51.3729 13.1356 50.6609 14.822L49.8516 16.7389C49.718 17.0552 49.7516 17.4171 49.9407 17.7035C50.1301 17.9898 50.4501 18.1624 50.7932 18.1635L57.4068 18.1833Z" fill="#A9AFC3"/>
</g>
<defs>
<clipPath id="clip0">
<rect width="70" height="70" fill="white"/>
</clipPath>
</defs>
</svg>
