<svg width="70" height="70" viewBox="0 0 70 70" fill="none" xmlns="http://www.w3.org/2000/svg">
<g clip-path="url(#clip0)">
<path d="M54.7633 64.2367V53.6666H52.4299V58.3333H17.5188L17.4989 55.9897L15.1655 56.0102L15.2345 64.2367C15.2384 67.4183 17.8173 69.9965 20.9989 70H48.9989C52.181 69.9965 54.7598 67.4183 54.7633 64.2367ZM48.9989 67.6666H20.9989C19.1019 67.6632 17.5661 66.1234 17.5678 64.2259L17.5387 60.6666H52.4299V64.2367C52.4277 66.1303 50.893 67.6649 48.9989 67.6666Z" fill="#A9AFC3"/>
<path d="M33.8322 63H36.1655V65.3333H33.8322V63Z" fill="#A9AFC3"/>
<path d="M41.9989 11.6666V14H52.4299V16.3333H54.7633V10.4299C54.7598 7.24833 52.181 4.67004 48.9989 4.66663H41.9989V6.99996H48.9989C50.893 7.00167 52.4277 8.53634 52.4299 10.4299V11.6666H41.9989Z" fill="#A9AFC3"/>
<path d="M6.99886 4.66667V18.6667C6.99886 21.2438 9.08838 23.3333 11.6655 23.3333H19.4824L26.1885 27.804C26.5462 28.041 27.0054 28.0621 27.3836 27.8593C27.7619 27.6565 27.9983 27.2623 27.9989 26.8333V23.3333H34.9989C37.5766 23.3333 39.6655 21.2438 39.6655 18.6667V4.66667C39.6655 2.08952 37.5766 0 34.9989 0H11.6655C9.08838 0 6.99886 2.08952 6.99886 4.66667ZM37.3322 4.66667V18.6667C37.3322 19.9552 36.2874 21 34.9989 21H26.8322C26.1879 21 25.6655 21.5224 25.6655 22.1667V24.6538L20.4799 21.196C20.2879 21.0684 20.0629 21.0006 19.8322 21H11.6655C10.377 21 9.33219 19.9552 9.33219 18.6667V4.66667C9.33219 3.37809 10.377 2.33333 11.6655 2.33333H34.9989C36.2874 2.33333 37.3322 3.37809 37.3322 4.66667Z" fill="#A9AFC3"/>
<path d="M13.9988 53.6666C16.993 53.6626 19.9074 52.701 22.3159 50.9226L27.6827 52.4555C28.1281 52.5831 28.6067 52.4356 28.9023 52.0795C29.198 51.7235 29.2549 51.2256 29.0476 50.8121L26.5604 45.8497C29.321 40.242 28.0302 33.4841 23.3965 29.2885C18.7635 25.0935 11.9105 24.4777 6.60349 27.7801C1.29653 31.0824 -1.17865 37.5025 0.538306 43.5124C2.25584 49.5223 7.74851 53.6661 13.9988 53.6666ZM13.9988 28C18.1209 28 21.9371 30.1755 24.0374 33.7228C26.1378 37.2695 26.2101 41.6616 24.2282 45.2761C24.0442 45.6116 24.0363 46.0161 24.2072 46.3584L25.7698 49.483L22.386 48.5169C22.0219 48.4143 21.6306 48.4947 21.3361 48.7328C19.2654 50.4235 16.6723 51.343 13.9988 51.3333C7.5554 51.3333 2.33217 46.1101 2.33217 39.6666C2.33217 33.2232 7.5554 28 13.9988 28Z" fill="#A9AFC3"/>
<path d="M6.59896 42.1167L13.2594 47.5718C13.6895 47.9244 14.3088 47.9244 14.7388 47.5718L21.3993 42.1167C22.488 41.236 23.1767 39.9542 23.31 38.5603C23.4399 37.1845 23.0092 35.8139 22.1154 34.7595C21.1179 33.5911 19.6852 32.883 18.1517 32.7999C16.6176 32.7167 15.1171 33.2664 13.9989 34.3197C12.8743 33.2664 11.3682 32.7184 9.82951 32.8033C8.30053 32.8842 6.87296 33.5923 5.88232 34.7595C4.98852 35.8139 4.55786 37.1845 4.68774 38.5603C4.82104 39.9542 5.50976 41.236 6.59896 42.1167ZM7.6722 36.2566C8.24756 35.5827 9.07527 35.1759 9.95996 35.1326H10.1457C10.9791 35.1292 11.7823 35.4459 12.389 36.0173L13.1928 36.7846C13.644 37.2159 14.3543 37.2159 14.8049 36.7846L15.6093 36.0173C16.2598 35.4089 17.1297 35.0916 18.0195 35.1378C18.9093 35.1839 19.7416 35.5901 20.3261 36.2623C20.8177 36.8405 21.0558 37.5924 20.9875 38.3484C20.9111 39.1214 20.526 39.8318 19.9199 40.3177L13.9989 45.1581L8.07837 40.308C7.47168 39.8221 7.08716 39.1123 7.01082 38.3387C6.94189 37.5827 7.18058 36.8314 7.6722 36.2531V36.2566Z" fill="#A9AFC3"/>
<path d="M53.6655 18.6666C47.8664 18.6592 42.4996 21.7314 39.5698 26.7359C36.64 31.7404 36.5876 37.924 39.4325 42.9775L36.3199 48.4166C36.088 48.8222 36.1205 49.3275 36.4031 49.7001C36.685 50.0721 37.1624 50.2401 37.6159 50.1268L44.4034 48.4297C47.1207 50.3233 50.3535 51.3367 53.6655 51.3333C62.6861 51.3333 69.9989 44.0206 69.9989 35C69.9989 25.9794 62.6861 18.6666 53.6655 18.6666ZM53.6655 49C50.6645 49.0034 47.7433 48.0333 45.3405 46.2348C45.1383 46.0833 44.8927 46.0018 44.6404 46.0018C44.5447 46.0013 44.4495 46.0127 44.3567 46.0366L39.6974 47.2033L41.7869 43.546C42 43.1735 41.992 42.7143 41.7659 42.3497C38.4242 36.9277 39.1682 29.9323 43.5745 25.3334C47.9814 20.7351 54.9381 19.6937 60.4986 22.8007C66.0585 25.9076 68.8174 32.3784 67.2104 38.5416C65.6028 44.7047 60.0349 49.004 53.6655 49Z" fill="#A9AFC3"/>
<path d="M60.199 31.5H58.3322V29.1667C58.3322 26.5895 56.2432 24.5 53.6655 24.5C52.377 24.5 51.3322 25.5448 51.3322 26.8333V29.8503L49.6825 31.5H45.4989C44.8546 31.5 44.3322 32.0224 44.3322 32.6667V42C44.3322 42.6443 44.8546 43.1667 45.4989 43.1667H60.199C61.7456 43.1667 62.9989 41.9128 62.9989 40.3668V34.2999C62.9989 32.7538 61.7456 31.5 60.199 31.5ZM46.6655 33.8333H48.9989V40.8333H46.6655V33.8333ZM60.6655 40.3668C60.6655 40.6243 60.4565 40.8333 60.199 40.8333H51.3322V33.1497L53.3237 31.1582C53.5425 30.9395 53.6655 30.6427 53.6655 30.3333V26.8333C54.9541 26.8333 55.9989 27.8781 55.9989 29.1667V31.5C55.3546 31.5 54.8322 32.0224 54.8322 32.6667C54.8322 33.311 55.3546 33.8333 55.9989 33.8333H60.199C60.4565 33.8333 60.6655 34.0424 60.6655 34.2999V40.3668Z" fill="#A9AFC3"/>
<path d="M13.9989 18.6667H25.6655C26.3098 18.6667 26.8322 18.1444 26.8322 17.5001V15.8879L32.1443 18.55C32.5066 18.7311 32.9378 18.7112 33.2819 18.497C33.626 18.2828 33.8345 17.9057 33.8322 17.5001V5.8334C33.8328 5.42894 33.6231 5.05354 33.2796 4.84048C32.9355 4.628 32.506 4.60863 32.1443 4.78921L26.8322 7.44555V5.8334C26.8322 5.18912 26.3098 4.66674 25.6655 4.66674H13.9989C13.3546 4.66674 12.8322 5.18912 12.8322 5.8334V17.5001C12.8322 18.1444 13.3546 18.6667 13.9989 18.6667ZM15.1655 7.00007H24.4989V9.3334C24.4989 9.73786 24.7079 10.1133 25.052 10.3263C25.3961 10.5388 25.8256 10.5582 26.1873 10.3776L31.4989 7.72126V15.6122L26.1873 12.9559C25.8256 12.7753 25.3961 12.7947 25.052 13.0072C24.7079 13.2202 24.4989 13.5956 24.4989 14.0001V16.3334H15.1655V7.00007Z" fill="#A9AFC3"/>
</g>
<defs>
<clipPath id="clip0">
<rect width="70" height="70" fill="white"/>
</clipPath>
</defs>
</svg>
