<svg width="100" height="100" viewBox="0 0 100 100" fill="none" xmlns="http://www.w3.org/2000/svg">
<g opacity="0.15">
<path d="M90.2344 5.27344H63.2812C57.8965 5.27344 53.5156 9.6543 53.5156 15.0391V38.4742C53.5156 43.859 57.8965 48.2398 63.2812 48.2398H75.9164C75.4719 62.8309 69.9357 70.416 59.0299 71.4082C58.024 71.4998 57.2537 72.3432 57.2537 73.3533V92.7734C57.2537 93.3105 57.4748 93.8238 57.865 94.1928C58.2287 94.5365 58.709 94.7266 59.2066 94.7266C59.2432 94.7266 59.2799 94.7256 59.3164 94.7234C72.775 93.9664 83.049 89.3346 89.8533 80.9564C96.5861 72.6664 100 60.5525 100 44.9516V15.0391C100 9.6543 95.6191 5.27344 90.2344 5.27344ZM96.0938 44.9516C96.0938 73.593 84.6611 88.5709 61.16 90.6736V75.0807C67.0998 74.1568 71.6941 71.392 74.8332 66.8461C78.1631 62.0238 79.8516 55.1068 79.8516 46.2867C79.8516 45.2082 78.9771 44.3336 77.8984 44.3336H63.2812C60.0504 44.3336 57.4219 41.7051 57.4219 38.4742V15.0391C57.4219 11.8082 60.0504 9.17969 63.2812 9.17969H86.7188V23.6395C86.7188 24.718 87.5932 25.5926 88.6719 25.5926C89.7506 25.5926 90.625 24.718 90.625 23.6395V9.19414C93.6742 9.39609 96.0938 11.9396 96.0938 15.0391V44.9516Z" fill="white"/>
<path d="M88.6719 28.4668C87.5932 28.4668 86.7188 29.351 86.7188 30.4295C86.7188 31.508 87.5932 32.3826 88.6719 32.3826C89.7504 32.3826 90.625 31.508 90.625 30.4295V30.4102C90.625 29.3316 89.7506 28.4668 88.6719 28.4668Z" fill="white"/>
<path d="M44.5312 23.2422C45.61 23.2422 46.4844 22.3676 46.4844 21.2891V15.0391C46.4844 9.6543 42.1035 5.27344 36.7188 5.27344H9.76562C4.38086 5.27344 0 9.6543 0 15.0391V38.4742C0 43.859 4.38086 48.2398 9.76562 48.2398H22.4008C21.9563 62.8309 16.4201 70.416 5.51426 71.4082C4.5082 71.4998 3.73809 72.3432 3.73809 73.3533V92.7734C3.73809 93.3105 3.95918 93.8238 4.34941 94.1928C4.71309 94.5363 5.19336 94.7266 5.69102 94.7266C5.72754 94.7266 5.76426 94.7256 5.80078 94.7234C19.2594 93.9664 29.5334 89.3346 36.3377 80.9564C43.0705 72.6662 46.4844 60.5525 46.4844 44.9516V37.9557C46.4844 36.8771 45.61 36.0025 44.5312 36.0025C43.4525 36.0025 42.5781 36.8771 42.5781 37.9557V44.9516C42.5781 73.593 31.1455 88.5709 7.64453 90.6736V75.0807C13.5842 74.1568 18.1785 71.392 21.3178 66.8461C24.6477 62.0236 26.3361 55.1066 26.3361 46.2867C26.3361 45.2082 25.4617 44.3336 24.383 44.3336H9.76562C6.53477 44.3336 3.90625 41.7051 3.90625 38.4742V15.0391C3.90625 11.8082 6.53477 9.17969 9.76562 9.17969H36.7188C39.9496 9.17969 42.5781 11.8082 42.5781 15.0391V21.2891C42.5781 22.3676 43.4525 23.2422 44.5312 23.2422Z" fill="white"/>
<path d="M44.5312 27.6689C43.4525 27.6689 42.5781 28.5436 42.5781 29.6221V29.6629C42.5781 30.7414 43.4525 31.616 44.5312 31.616C45.61 31.616 46.4844 30.7414 46.4844 29.6629V29.6221C46.4844 28.5436 45.61 27.6689 44.5312 27.6689Z" fill="white"/>
</g>
</svg>
