<svg width="50" height="50" viewBox="0 0 50 50" fill="none" xmlns="http://www.w3.org/2000/svg">
<path d="M45.1172 2.63672H31.6406C28.9482 2.63672 26.7578 4.82715 26.7578 7.51953V19.2371C26.7578 21.9295 28.9482 24.1199 31.6406 24.1199H37.9582C37.7359 31.4154 34.9679 35.208 29.5149 35.7041C29.012 35.7499 28.6269 36.1716 28.6269 36.6767V46.3867C28.6269 46.6553 28.7374 46.9119 28.9325 47.0964C29.1144 47.2683 29.3545 47.3633 29.6033 47.3633C29.6216 47.3633 29.6399 47.3628 29.6582 47.3617C36.3875 46.9832 41.5245 44.6673 44.9267 40.4782C48.2931 36.3332 50 30.2763 50 22.4758V7.51953C50 4.82715 47.8096 2.63672 45.1172 2.63672ZM48.0469 22.4758C48.0469 36.7965 42.3306 44.2854 30.58 45.3368V37.5403C33.5499 37.0784 35.8471 35.696 37.4166 33.423C39.0815 31.0119 39.9258 27.5534 39.9258 23.1434C39.9258 22.6041 39.4886 22.1668 38.9492 22.1668H31.6406C30.0252 22.1668 28.7109 20.8525 28.7109 19.2371V7.51953C28.7109 5.9041 30.0252 4.58984 31.6406 4.58984H43.3594V11.8197C43.3594 12.359 43.7966 12.7963 44.3359 12.7963C44.8753 12.7963 45.3125 12.359 45.3125 11.8197V4.59707C46.8371 4.69805 48.0469 5.96982 48.0469 7.51953V22.4758Z" fill="#DD4242"/>
<path d="M44.3359 14.2335C43.7966 14.2335 43.3594 14.6756 43.3594 15.2149C43.3594 15.7541 43.7966 16.1914 44.3359 16.1914C44.8752 16.1914 45.3125 15.7541 45.3125 15.2149V15.2052C45.3125 14.6659 44.8753 14.2335 44.3359 14.2335Z" fill="#DD4242"/>
<path d="M22.2656 11.6211C22.805 11.6211 23.2422 11.1838 23.2422 10.6445V7.51953C23.2422 4.82715 21.0518 2.63672 18.3594 2.63672H4.88281C2.19043 2.63672 0 4.82715 0 7.51953V19.2371C0 21.9295 2.19043 24.1199 4.88281 24.1199H11.2004C10.9781 31.4154 8.21006 35.208 2.75713 35.7041C2.2541 35.7499 1.86904 36.1716 1.86904 36.6767V46.3867C1.86904 46.6553 1.97959 46.9119 2.17471 47.0964C2.35654 47.2682 2.59668 47.3633 2.84551 47.3633C2.86377 47.3633 2.88213 47.3628 2.90039 47.3617C9.62969 46.9832 14.7667 44.6673 18.1688 40.4782C21.5353 36.3331 23.2422 30.2763 23.2422 22.4758V18.9778C23.2422 18.4386 22.805 18.0013 22.2656 18.0013C21.7263 18.0013 21.2891 18.4386 21.2891 18.9778V22.4758C21.2891 36.7965 15.5728 44.2854 3.82227 45.3368V37.5403C6.79209 37.0784 9.08926 35.696 10.6589 33.423C12.3238 31.0118 13.1681 27.5533 13.1681 23.1434C13.1681 22.6041 12.7309 22.1668 12.1915 22.1668H4.88281C3.26738 22.1668 1.95312 20.8525 1.95312 19.2371V7.51953C1.95312 5.9041 3.26738 4.58984 4.88281 4.58984H18.3594C19.9748 4.58984 21.2891 5.9041 21.2891 7.51953V10.6445C21.2891 11.1838 21.7263 11.6211 22.2656 11.6211Z" fill="#DD4242"/>
<path d="M22.2656 13.8346C21.7263 13.8346 21.2891 14.2719 21.2891 14.8112V14.8316C21.2891 15.3708 21.7263 15.8081 22.2656 15.8081C22.805 15.8081 23.2422 15.3708 23.2422 14.8316V14.8112C23.2422 14.2719 22.805 13.8346 22.2656 13.8346Z" fill="#DD4242"/>
</svg>
