<svg width="16" height="16" viewBox="0 0 16 16" fill="none" xmlns="http://www.w3.org/2000/svg">
<path d="M12.7188 9.4375C11.6044 9.4375 10.6182 9.99603 10.0248 10.8477L6.39572 9.03316C6.50378 8.70816 6.5625 8.36081 6.5625 8C6.5625 7.63919 6.50378 7.29184 6.39572 6.96684L10.0248 5.15228C10.6182 6.00397 11.6044 6.5625 12.7188 6.5625C14.528 6.5625 16 5.09053 16 3.28125C16 1.47197 14.528 0 12.7188 0C10.9095 0 9.4375 1.47197 9.4375 3.28125C9.4375 3.64206 9.49622 3.98941 9.60428 4.31441L5.97516 6.12897C5.38184 5.27728 4.39563 4.71875 3.28125 4.71875C1.47197 4.71875 0 6.19072 0 8C0 9.80928 1.47197 11.2812 3.28125 11.2812C4.39563 11.2812 5.38184 10.7227 5.97516 9.87103L9.60428 11.6856C9.49622 12.0106 9.4375 12.3579 9.4375 12.7188C9.4375 14.528 10.9095 16 12.7188 16C14.528 16 16 14.528 16 12.7188C16 10.9095 14.528 9.4375 12.7188 9.4375ZM12.7188 0.9375C14.0111 0.9375 15.0625 1.98891 15.0625 3.28125C15.0625 4.57359 14.0111 5.625 12.7188 5.625C11.4264 5.625 10.375 4.57359 10.375 3.28125C10.375 1.98891 11.4264 0.9375 12.7188 0.9375ZM3.28125 10.3438C1.98891 10.3438 0.9375 9.29234 0.9375 8C0.9375 6.70766 1.98891 5.65625 3.28125 5.65625C4.57359 5.65625 5.625 6.70766 5.625 8C5.625 9.29234 4.57359 10.3438 3.28125 10.3438ZM12.7188 15.0625C11.4264 15.0625 10.375 14.0111 10.375 12.7188C10.375 11.4264 11.4264 10.375 12.7188 10.375C14.0111 10.375 15.0625 11.4264 15.0625 12.7188C15.0625 14.0111 14.0111 15.0625 12.7188 15.0625Z" fill="#DD4242"/>
</svg>
